HIERARCHY
ROOT Hips
{
	OFFSET 0.000000 0.000000 0.000000
	CHANNELS 6 Xposition Yposition Zposition Xrotation Yrotation Zrotation
	JOINT LeftUpLeg_virtual
	{
		OFFSET 0.000000 0.000000 0.000000
		CHANNELS 3 Xrotation Yrotation Zrotation
		JOINT LeftUpLeg
		{
			OFFSET 15.427100 -6.655098 0.678600
			CHANNELS 3 Xrotation Yrotation Zrotation
			JOINT LeftLeg
			{
				OFFSET 4.081073 -39.591068 13.024000
				CHANNELS 3 Xrotation Yrotation Zrotation
				JOINT LeftFoot
				{
					OFFSET -4.081074 -37.707932 -15.979700
					CHANNELS 3 Xrotation Yrotation Zrotation
					JOINT LeftToeBase
					{
						OFFSET 5.346399 -15.068900 20.645000
						CHANNELS 3 Xrotation Yrotation Zrotation
						JOINT LeftToe_End
						{
							OFFSET 2.754700 0.931300 11.300900
							CHANNELS 3 Xrotation Yrotation Zrotation
							End Site
							{
								OFFSET 0 0 0
							}
						}
					}
				}
			}
		}
	}
	JOINT RightUpLeg_virtual
	{
		OFFSET 0.000000 0.000000 0.000000
		CHANNELS 3 Xrotation Yrotation Zrotation
		JOINT RightUpLeg
		{
			OFFSET -15.569500 -6.655098 0.678600
			CHANNELS 3 Xrotation Yrotation Zrotation
			JOINT RightLeg
			{
				OFFSET -4.081825 -39.591045 13.023800
				CHANNELS 3 Xrotation Yrotation Zrotation
				JOINT RightFoot
				{
					OFFSET 4.081824 -37.707954 -15.979600
					CHANNELS 3 Xrotation Yrotation Zrotation
					JOINT RightToeBase
					{
						OFFSET -5.346400 -15.068900 20.645000
						CHANNELS 3 Xrotation Yrotation Zrotation
						JOINT RightToe_End
						{
							OFFSET -2.754700 0.931300 11.300900
							CHANNELS 3 Xrotation Yrotation Zrotation
							End Site
							{
								OFFSET 0 0 0
							}
						}
					}
				}
			}
		}
	}
	JOINT Spine_virtual
	{
		OFFSET 0.000000 0.000000 0.000000
		CHANNELS 3 Xrotation Yrotation Zrotation
		JOINT Spine
		{
			OFFSET -0.279200 12.230698 -2.892100
			CHANNELS 3 Xrotation Yrotation Zrotation
			JOINT Spine1
			{
				OFFSET -0.232667 10.192268 -1.242267
				CHANNELS 3 Xrotation Yrotation Zrotation
				JOINT Spine1_split
				{
					OFFSET -0.232667 10.192268 -1.242267
					CHANNELS 3 Xrotation Yrotation Zrotation
					JOINT Spine2
					{
						OFFSET -0.232667 10.192268 -1.242267
						CHANNELS 3 Xrotation Yrotation Zrotation
						JOINT Neck_virtual
						{
							OFFSET 0.000000 0.000000 0.000000
							CHANNELS 3 Xrotation Yrotation Zrotation
							JOINT Neck
							{
								OFFSET -0.418800 17.814194 8.416900
								CHANNELS 3 Xrotation Yrotation Zrotation
								JOINT Head
								{
									OFFSET 0.000000 7.031097 3.806800
									CHANNELS 3 Xrotation Yrotation Zrotation
									JOINT HeadTop_End
									{
										OFFSET 0.000000 24.646606 12.978600
										CHANNELS 3 Xrotation Yrotation Zrotation
										End Site
										{
											OFFSET 0 0 0
										}
									}
								}
							}
						}
						JOINT LeftShoulder_virtual
						{
							OFFSET 0.000000 0.000000 0.000000
							CHANNELS 3 Xrotation Yrotation Zrotation
							JOINT LeftShoulder
							{
								OFFSET 8.476499 7.247704 -3.868750
								CHANNELS 3 Xrotation Yrotation Zrotation
								JOINT LeftShoulder_split
								{
									OFFSET 8.476499 7.247704 -3.868750
									CHANNELS 3 Xrotation Yrotation Zrotation
									JOINT LeftArm
									{
										OFFSET 9.308998 -2.777710 0.208600
										CHANNELS 3 Xrotation Yrotation Zrotation
										JOINT LeftForeArm
										{
											OFFSET 29.972298 0.000000 0.000000
											CHANNELS 3 Xrotation Yrotation Zrotation
											JOINT LeftHand
											{
												OFFSET 26.026505 0.000000 0.000000
												CHANNELS 3 Xrotation Yrotation Zrotation
												End Site
												{
													OFFSET 0 0 0
												}
											}
										}
									}
								}
							}
						}
						JOINT RightShoulder_virtual
						{
							OFFSET 0.000000 0.000000 0.000000
							CHANNELS 3 Xrotation Yrotation Zrotation
							JOINT RightShoulder
							{
								OFFSET -7.570500 7.247704 -3.868750
								CHANNELS 3 Xrotation Yrotation Zrotation
								JOINT RightShoulder_split
								{
									OFFSET -7.570500 7.247704 -3.868750
									CHANNELS 3 Xrotation Yrotation Zrotation
									JOINT RightArm
									{
										OFFSET -9.308998 -2.777710 0.208500
										CHANNELS 3 Xrotation Yrotation Zrotation
										JOINT RightForeArm
										{
											OFFSET -29.972300 0.000000 0.000000
											CHANNELS 3 Xrotation Yrotation Zrotation
											JOINT RightHand
											{
												OFFSET -26.026505 0.000000 0.000000
												CHANNELS 3 Xrotation Yrotation Zrotation
												End Site
												{
													OFFSET 0 0 0
												}
											}
										}
									}
								}
							}
						}
					}
				}
			}
		}
	}
}
MOTION
Frames: 10
Frame Time: 0.03333333
2.180657 82.366562 -1.187721 0.000000 0.000000 0.000000 9.582368 -61.717767 10.032741 -36.773394 10.617890 26.395143 33.315655 -8.026587 0.411750 -2.590174 -1.478197 -18.486378 -1.836412 -0.000612 -0.000027 0.000000 0.000000 0.000000 9.582368 -61.717767 10.032741 -28.946810 -19.272089 -35.992805 32.930767 6.440863 -2.518599 -10.676322 -1.252884 25.195238 -0.001699 -0.000451 -0.000006 0.000000 0.000000 0.000000 9.582368 -61.717767 10.032741 15.064223 -0.187990 -4.170219 5.872408 0.563921 -2.798208 0.000000 0.000000 0.000000 0.000000 0.000000 0.000000 5.868720 0.648185 -2.860163 -3.632888 1.437156 3.747491 -20.005960 54.836765 2.407371 0.000000 0.000000 0.000000 5.868720 0.648185 -2.860163 1.828104 -3.192685 -12.271575 0.000000 0.000000 0.000000 -39.387409 26.350489 -34.911091 0.429354 -46.808448 0.416183 0.000000 0.000000 0.000000 5.868720 0.648185 -2.860163 0.632603 7.257357 8.700387 0.000000 0.000000 0.000000 7.936007 -9.680155 53.429899 -22.867453 36.194709 17.955456 0.000000 0.000000 0.000000 
1.928561 83.190796 1.177647 0.000000 0.000000 0.000000 9.178552 -62.247079 9.295933 -35.250391 11.690928 25.656028 33.887403 -7.642637 0.435702 -4.566267 -1.512669 -17.199026 -1.836412 -0.000615 -0.000027 0.000000 0.000000 0.000000 9.178552 -62.247079 9.295933 -25.815658 -16.382456 -35.317583 31.988846 2.944200 -1.800986 -7.268107 -2.748830 25.658669 -2.463987 -0.054717 1.093924 0.000000 0.000000 0.000000 9.178552 -62.247079 9.295933 15.050079 -0.271271 -3.994138 5.633808 0.369645 -2.696472 0.000000 0.000000 0.000000 0.000000 0.000000 0.000000 5.629855 0.454785 -2.759864 -3.655649 1.814231 3.662543 -19.581879 54.532353 1.920077 0.000000 0.000000 0.000000 5.629855 0.454785 -2.759864 1.851095 -3.205589 -12.196507 0.000000 0.000000 0.000000 -39.716631 26.246993 -34.186507 2.759060 -45.717437 2.309604 0.000000 0.000000 0.000000 5.629855 0.454785 -2.759864 0.772922 7.546836 9.119208 0.000000 0.000000 0.000000 2.943620 -7.711105 52.563466 -20.404019 29.266107 13.879037 0.000000 0.000000 0.000000 
1.649774 83.925728 3.488270 0.000000 0.000000 0.000000 8.804379 -62.743873 8.620870 -33.659613 12.661625 24.851799 34.353099 -7.171564 0.463269 -6.488185 -1.570209 -16.036410 -1.836412 -0.000609 -0.000027 0.000000 0.000000 0.000000 8.804379 -62.743873 8.620870 -23.035173 -12.919790 -34.648628 31.917911 -0.665750 -1.078924 -3.919856 -4.249263 25.713886 -4.783585 -0.133377 1.674406 0.000000 0.000000 0.000000 8.804379 -62.743873 8.620870 14.998945 -0.521891 -3.762484 5.045682 -0.128984 -2.448177 0.000000 0.000000 0.000000 0.000000 0.000000 0.000000 5.041004 -0.041601 -2.515149 -3.720498 2.785943 3.434602 -18.635232 53.713076 0.794578 0.000000 0.000000 0.000000 5.041004 -0.041601 -2.515149 1.873395 -3.331845 -12.086872 0.000000 0.000000 0.000000 -40.480055 25.785463 -33.065117 6.768834 -44.015119 5.583189 0.000000 0.000000 0.000000 5.041004 -0.041601 -2.515149 0.936699 7.766043 9.550951 0.000000 0.000000 0.000000 -1.613903 -5.712800 52.002052 -18.552337 22.793222 10.360605 0.000000 0.000000 0.000000 
1.279822 84.138733 5.601578 0.000000 0.000000 0.000000 8.667516 -63.087534 8.236700 -32.602928 13.258855 24.187933 35.495721 -6.801852 0.468828 -8.614063 -1.568495 -15.071733 -1.836412 -0.000616 -0.000028 0.000000 0.000000 0.000000 8.667516 -63.087534 8.236700 -21.193368 -6.928133 -33.204787 34.959302 -4.473877 -0.286907 -1.872304 -5.913711 24.677960 -6.285838 -0.338448 0.451014 0.000000 0.000000 0.000000 8.667516 -63.087534 8.236700 14.897344 -0.891662 -3.605336 4.298310 -0.805949 -2.138082 0.000000 0.000000 0.000000 0.000000 0.000000 0.000000 4.292546 -0.715838 -2.209661 -3.818481 4.116806 3.101288 -17.633243 52.530466 -0.480027 0.000000 0.000000 0.000000 4.292546 -0.715838 -2.209661 1.949458 -3.526671 -11.745688 0.000000 0.000000 0.000000 -41.471034 25.115198 -32.276889 9.414641 -42.555951 7.776771 0.000000 0.000000 0.000000 4.292546 -0.715838 -2.209661 1.113364 7.883241 10.023656 0.000000 0.000000 0.000000 -4.540863 -4.564125 51.563717 -17.617658 19.210916 8.374708 0.000000 0.000000 0.000000 
0.826859 83.419174 7.542030 0.000000 0.000000 0.000000 9.081122 -63.085799 8.325143 -32.892473 13.278968 23.660149 38.263888 -7.732292 0.435632 -11.254594 -0.475026 -13.754842 -1.836412 -0.000612 -0.000027 0.000000 0.000000 0.000000 9.081122 -63.085799 8.325143 -21.828854 0.009096 -30.433513 40.662541 -6.740581 0.735107 -3.176523 -7.096542 22.529167 -6.801958 -0.639249 0.854059 0.000000 0.000000 0.000000 9.081122 -63.085799 8.325143 14.730618 -1.301429 -3.530103 3.578988 -1.529666 -1.840883 0.000000 0.000000 0.000000 0.000000 0.000000 0.000000 3.571956 -1.437409 -1.916908 -3.944831 5.573685 2.700326 -16.987357 51.158694 -1.481080 0.000000 0.000000 0.000000 3.571956 -1.437409 -1.916908 2.040277 -3.836189 -11.401151 0.000000 0.000000 0.000000 -42.772438 24.010676 -31.477559 11.067996 -41.600380 9.292124 0.000000 0.000000 0.000000 3.571956 -1.437409 -1.916908 1.307598 7.982443 10.509483 0.000000 0.000000 0.000000 -6.321594 -4.162947 51.249194 -16.993126 17.954865 7.352939 0.000000 0.000000 0.000000 
0.472955 82.165695 9.472408 0.000000 0.000000 0.000000 10.087617 -62.703718 8.718108 -34.234803 12.811242 23.520953 42.054288 -8.039741 0.470972 -14.248835 -0.299888 -12.630361 -1.836412 -0.000613 -0.000027 0.000000 0.000000 0.000000 10.087617 -62.703718 8.718108 -25.279589 -1.002672 -28.680347 42.828961 -5.186154 1.824948 -7.252481 -6.838951 21.133702 -3.639914 -0.500488 1.274569 0.000000 0.000000 0.000000 10.087617 -62.703718 8.718108 14.491028 -1.609312 -3.304012 3.071486 -2.160653 -1.616184 0.000000 0.000000 0.000000 0.000000 0.000000 0.000000 3.063305 -2.067872 -1.695557 -4.105698 6.926697 2.268999 -17.041554 49.796700 -1.869442 0.000000 0.000000 0.000000 3.063305 -2.067872 -1.695557 2.111771 -4.306868 -11.073893 0.000000 0.000000 0.000000 -44.224976 22.611532 -30.611767 12.233522 -40.642522 10.518507 0.000000 0.000000 0.000000 3.063305 -2.067872 -1.695557 1.521371 7.911503 10.979702 0.000000 0.000000 0.000000 -7.402142 -4.239082 50.960373 -16.261849 18.118655 6.823187 0.000000 0.000000 0.000000 
0.146009 80.397964 10.998901 0.000000 0.000000 0.000000 11.774664 -61.981897 9.694012 -36.581943 11.896364 23.662171 46.427818 -8.390411 0.497490 -17.171236 -0.312353 -11.711797 -1.836412 -0.000613 -0.000027 0.000000 0.000000 0.000000 11.774664 -61.981897 9.694012 -29.085271 -4.760725 -28.119564 43.945017 -2.417756 2.532511 -12.423701 -7.393150 21.221306 0.896796 -0.108206 -0.622166 0.000000 0.000000 0.000000 11.774664 -61.981897 9.694012 14.148814 -1.744949 -3.070897 3.047128 -2.521170 -1.536637 0.000000 0.000000 0.000000 0.000000 0.000000 0.000000 3.038253 -2.431638 -1.616972 -4.385509 7.975299 1.782817 -18.673631 48.538681 -0.918728 0.000000 0.000000 0.000000 3.038253 -2.431638 -1.616972 2.227841 -4.919950 -10.492774 0.000000 0.000000 0.000000 -45.915766 21.004474 -29.798766 13.200538 -39.399468 11.511833 0.000000 0.000000 0.000000 3.038253 -2.431638 -1.616972 1.761115 7.695964 11.348126 0.000000 0.000000 0.000000 -8.181394 -4.609702 50.913623 -16.012344 19.053291 6.832315 0.000000 0.000000 0.000000 
-0.257881 78.100182 11.800644 0.000000 0.000000 0.000000 14.303375 -61.013226 11.622632 -39.889794 10.510629 24.055139 51.091891 -8.921922 0.466185 -19.762772 -0.221061 -11.225264 -1.836412 -0.000609 -0.000027 0.000000 0.000000 0.000000 14.303375 -61.013226 11.622632 -32.805576 -5.187556 -27.591821 47.110379 0.117167 2.611448 -16.224232 -9.340186 21.008530 1.590034 0.037868 0.093072 0.000000 0.000000 0.000000 14.303375 -61.013226 11.622632 13.651831 -1.833336 -2.985401 3.145201 -2.743440 -1.574858 0.000000 0.000000 0.000000 0.000000 0.000000 0.000000 3.135635 -2.659218 -1.654651 -4.755074 8.920284 1.174044 -21.443232 47.150681 0.906138 0.000000 0.000000 0.000000 3.135635 -2.659218 -1.654651 2.358560 -5.754284 -9.944385 0.000000 0.000000 0.000000 -47.869603 19.053747 -28.599211 14.694322 -37.796710 12.664970 0.000000 0.000000 0.000000 3.135635 -2.659218 -1.654651 2.046237 7.304445 11.750558 0.000000 0.000000 0.000000 -8.915656 -4.973132 51.225708 -15.230297 20.100789 6.588199 0.000000 0.000000 0.000000 
-0.690086 75.217911 11.929401 0.000000 0.000000 0.000000 17.715900 -59.837068 14.493984 -44.277774 8.581550 24.711017 56.153492 -9.615321 0.378903 -22.045703 0.031998 -11.194806 -1.836412 -0.000616 -0.000027 0.000000 0.000000 0.000000 17.715900 -59.837068 14.493984 -38.882033 -5.328418 -27.577886 52.706490 3.345113 2.329499 -18.478175 -9.780938 18.733220 1.147192 0.033404 0.001992 0.000000 0.000000 0.000000 17.715900 -59.837068 14.493984 13.008167 -1.939366 -3.043204 3.118118 -2.924724 -1.689924 0.000000 0.000000 0.000000 0.000000 0.000000 0.000000 3.107537 -2.845799 -1.768499 -5.239587 9.875292 0.461160 -24.597729 45.623485 2.951736 0.000000 0.000000 0.000000 3.107537 -2.845799 -1.768499 2.568630 -6.656748 -9.361684 0.000000 0.000000 0.000000 -50.065338 16.695984 -27.276176 18.193592 -35.949301 14.991703 0.000000 0.000000 0.000000 3.107537 -2.845799 -1.768499 2.373519 6.870185 12.191198 0.000000 0.000000 0.000000 -9.782690 -4.944058 51.689461 -14.276271 20.856691 5.970966 0.000000 0.000000 0.000000 
-0.983052 72.044189 11.637630 0.000000 0.000000 0.000000 21.440876 -58.570580 17.645935 -49.292915 6.249442 25.502757 61.255650 -10.352924 0.254353 -23.891722 0.383309 -11.477440 -1.836412 -0.000611 -0.000027 0.000000 0.000000 0.000000 21.440876 -58.570580 17.645935 -44.342534 -4.995715 -28.901542 58.381841 5.043559 2.455974 -20.964762 -9.672853 17.968647 0.955200 0.021869 -0.057238 0.000000 0.000000 0.000000 21.440876 -58.570580 17.645935 12.287543 -2.059312 -3.127591 3.015263 -3.131010 -1.888566 0.000000 0.000000 0.000000 0.000000 0.000000 0.000000 3.003407 -3.056348 -1.965669 -5.916176 10.925716 -0.313813 -27.873929 44.050701 5.073414 0.000000 0.000000 0.000000 3.003407 -3.056348 -1.965669 2.859458 -7.119588 -8.626261 0.000000 0.000000 0.000000 -52.351436 14.116749 -25.948951 19.530827 -34.715434 15.964143 0.000000 0.000000 0.000000 3.003407 -3.056348 -1.965669 2.716903 6.791211 12.946783 0.000000 0.000000 0.000000 -10.566068 -4.698459 51.779965 -14.130953 22.419927 5.635976 0.000000 0.000000 0.000000 
